<!--?xml version="1.0" encoding="utf-8"?-->
<!-- Generator: Adobe Illustrator 25.2.3, SVG Export Plug-In . SVG Version: 6.00 Build 0)  -->
<svg version="1.1" id="_x31_9" xmlns="http://www.w3.org/2000/svg" xmlns:xlink="http://www.w3.org/1999/xlink" x="0px" y="0px" viewBox="0 0 484 720" style="enable-background:new 0 0 484 720;" xml:space="preserve">
<style type="text/css">
	.st0{fill:#563737;}
	.st1{fill:#442D2D;}
	.st2{fill:#654646;}
	.st3{fill:#472828;}
	.st4{fill:#513232;}
	.st5{fill:#A69387;}
	.st6{fill:#BAA79B;}
	.st7{fill:#AA926F;}
	.st8{fill:#A08865;}
	.st9{fill:#A58D6A;}
	.st10{fill:#7F562E;}
	.st11{fill:#8E653D;}
	.st12{fill:#A27951;}
	.st13{fill:#70471F;}
	.st14{fill:#3A2924;}
	.st15{fill:#C59C74;}
	.st16{fill:#FFFFFF;}
	.st17{fill:#896038;}
	.st18{fill:#986F47;}
	.st19{fill:#CEBBAF;}
</style>
<g>
	<g>
		<g>
			<path class="st0" d="M398.419,406.739c-14.095,0.665-42.736-2.648-44.304-40.213c-0.081-1.938-1.498-3.567-3.399-3.953
				l-108.715-22.063l-108.716,22.063c-1.901,0.386-3.318,2.015-3.399,3.953c-1.568,37.565-30.209,40.877-44.305,40.213
				c-4.627-0.218-8.765,2.789-9.943,7.27c-8.141,30.964-34.108,142.649-2.497,201.807C122.062,707.372,242.001,720,242.001,720
				s119.938-12.628,168.859-104.183c31.61-59.158,5.643-170.844-2.498-201.807C407.184,409.528,403.046,406.521,398.419,406.739z" style="opacity: 1;"></path>
			<path class="st1" d="M396.018,422.694l-0.441-1.74l-1.79-0.037c-12.93-0.277-24.314-3.832-33.075-10.208
				c-7.739-5.656-16.711-15.798-19.751-34.154l-0.264-1.602l-98.697-20.031l-98.69,20.029l-0.262,1.604
				c-2.64,16.029-9.953,26.825-19.518,33.861c-9.568,7.025-21.519,10.234-33.319,10.5l-1.789,0.041l-0.439,1.735
				c-9.167,36.229-15.968,78.007-15.972,115.087c0.013,27.833,3.802,53.032,13.585,71.38c20.883,39.063,56.355,62.663,88.287,76.769
				c31.951,14.108,60.456,18.763,67.793,19.793l0.325,0.045l0.326-0.045c7.337-1.029,35.841-5.684,67.793-19.793
				c31.933-14.106,67.404-37.706,88.287-76.769c9.779-18.35,13.567-43.548,13.58-71.379
				C411.983,500.7,405.182,458.923,396.018,422.694z M394.254,606.94c-20.168,37.765-54.666,60.827-86.037,74.681
				c-30.945,13.671-58.715,18.323-66.217,19.389c-7.501-1.066-35.271-5.718-66.216-19.389
				c-31.371-13.853-65.869-36.916-86.037-74.681c-9.204-17.183-13.043-41.761-13.031-69.161
				c-0.003-35.947,6.532-76.715,15.415-112.254c11.982-0.56,24.147-3.957,34.181-11.31c10.198-7.46,18.026-19.064,21.044-35.279
				L242,359.727l94.621,19.204c3.474,18.611,13.017,29.573,21.322,35.587c9.235,6.717,20.935,10.433,33.926,11.01
				c8.88,35.539,15.415,76.305,15.412,112.252C407.293,565.177,403.453,589.755,394.254,606.94z" style="opacity: 1;"></path>
			<path class="st2" d="M147.039,362.089c-2.028,0.738-13.341,2.341-14.043,2.809c-0.702,0.468-1.872,1.639-1.872,4.916
				s-0.702,18.261-11.702,28.561c-11,10.301-25.745,11.237-30.894,11.003c-5.149-0.234-8.426,1.639-9.83,3.98
				c-1.404,2.341-3.511,10.067-3.277,11.003s1.404,0.234,2.575-3.278s3.511-9.13,8.66-9.364c5.149-0.234,12.639-0.468,22.937-4.682
				s16.383-11.003,19.192-18.026c2.809-7.023,4.915-15.685,4.915-18.495c0-2.809,1.638-4.214,3.511-4.214s8.192-2.107,10.766-2.575
				S149.613,361.153,147.039,362.089z" style="opacity: 1;"></path>
			<path class="st3" d="M177.085,562.823c9.913,21.634,27.035,24.338,32.442,28.845c5.407,4.507,9.012,1.803,18.023,13.521
				c9.012,11.718,21.628,18.028,21.628,5.408c0-12.62,11.715,2.704,14.419-6.31c2.704-9.014,9.913-15.324,14.419-11.718
				c4.506,3.606,12.616,2.704,14.419-9.014c1.802-11.718-3.605-0.901,4.506-8.113c8.111-7.211,0.901,0,9.913-9.014
				c9.012-9.014,5.407-5.409,11.715-10.817s11.715-9.915,11.715-9.915s2.704-5.408,5.407-15.324
				c2.704-9.916,9.913-7.211,8.111-20.732c-1.802-13.521-2.704-22.535-2.704-22.535l-9.012-20.732c0,0-2.704-23.437-3.605-38.761
				c-0.901-15.324,0.901-34.254-3.605-41.465c-4.506-7.211-1.067-23.253-23.513-2.162c-22.447,21.091-95.442,67.063-116.169,93.204
				s-27.936,42.366-25.233,58.592c2.704,16.225,11.715,17.127,12.616,13.521C173.48,545.696,177.085,562.823,177.085,562.823z" style="opacity: 1;"></path>
		</g>
		<path class="st4" d="M102.968,436.547c16.304,23.298,6.211,59.022,6.211,59.022s-21.739,53.586-2.329,72.224
			c19.41,18.638,24.069,22.522,18.634,37.277c-5.435,14.755,31.833,48.149,31.833,63.682c5.435,4.66,10.87,5.436,10.87,5.436
			s0.776-3.883-6.211-19.415s-28.727-36.5-27.174-45.043c1.553-8.543,13.199-13.979,0-25.628
			c-13.199-11.649-22.516-7.766-24.069-32.617c-1.553-24.851,6.988-40.383,8.54-57.469c1.553-17.085-0.776-53.586-4.658-60.575
			c-3.882-6.989-6.988-5.436-6.988-5.436l-9.317,3.106L102.968,436.547z" style="opacity: 1;"></path>
		<path class="st4" d="M99.924,449.682c4.464,11.163,5.919,38.71,0,37.799c-5.919-0.911-2.732-19.127-4.098-29.602
			C94.461,447.405,99.014,447.405,99.924,449.682z" style="opacity: 1;"></path>
		<path class="st4" d="M91.274,505.243c-4.553,13.207-3.187,47.363,2.276,57.382s4.553,20.494-0.911,14.118
			s-9.106-28.236-11.838-44.175s1.366-24.137,2.732-35.522C84.9,485.66,93.095,495.679,91.274,505.243z" style="opacity: 1;"></path>
		<path class="st4" d="M127.242,425.09c7.285,6.831,9.106,23.226,6.829,45.997s-12.293,40.987-9.106,63.303
			c3.187,22.315,8.651,41.443,9.106,23.682s-6.374-33.245,1.366-52.373c7.74-19.127,14.114-48.729,12.748-60.115
			c-1.366-11.385-7.74-43.264-7.74-43.264S134.072,420.536,127.242,425.09z" style="opacity: 1;"></path>
		<path class="st4" d="M157.392,447.87c-1.265-17.708-2.471-39.539-4.941-45.305s8.647-15.239,8.647-15.239
			s25.941-13.18,21.412-6.59s-12.353,18.534-14,26.36c-1.647,7.825,1.647,20.182-1.235,40.363
			c-2.882,20.182-11.941,31.714-14.823,33.361C149.568,482.467,157.803,453.636,157.392,447.87z" style="opacity: 1;"></path>
		<path class="st4" d="M139.274,539.304c-2.471-16.887,2.471-39.127,6.588-42.834c4.118-3.707,5.353-6.178,2.471,5.766
			s-8.235,12.768-0.412,34.597s7.823,29.243,1.647,37.068c-6.176,7.825-4.118-3.295-7-14.004
			C139.686,549.189,139.274,539.304,139.274,539.304z" style="opacity: 1;"></path>
		<path class="st4" d="M103.039,586.257c11.941,5.766,13.588,10.709,12.765,14.827c-0.824,4.119-2.882,7.414,0.824,12.768
			c3.706,5.354,23.47,30.066,8.647,19.77c-14.823-10.297-27.483-30.437-30.059-43.658
			C92.64,576.743,103.039,586.257,103.039,586.257z" style="opacity: 1;"></path>
		<path class="st4" d="M158.627,583.374c13.588,5.766,23.059,6.178,19.353,12.356c-3.706,6.178-8.647,11.532-7.823,15.651
			c0.824,4.119,4.118,10.297,4.118,23.065c0,12.768-1.647,19.77-8.235,3.295c-6.588-16.475-11.118-21.417-14.412-31.714
			c-3.294-10.297,2.059-7.414,0.412-16.063C150.392,581.315,158.627,583.374,158.627,583.374z" style="opacity: 1;"></path>
		<path class="st4" d="M187.038,613.852c-2.059,7.826-6.176,6.59,2.059,26.36c8.235,19.77-8.647,26.771-12.765,26.771
			c-4.118,0-0.824,4.531,12.765,12.768c13.588,8.237,14.412,9.061,11.118,1.647c-3.294-7.414-2.059-16.475-0.412-26.36
			c1.647-9.885-1.647-14.827-3.706-21.005c-2.059-6.178-1.235-14.415-1.647-22.653s-1.647-14.415-6.588-19.77
			c-4.941-5.354-6.176-2.059-3.294,6.59S187.038,613.852,187.038,613.852z" style="opacity: 1;"></path>
		<path class="st4" d="M210.097,616.324c3.541,13.283-2.882,15.239,3.706,28.419c6.588,13.18,7.412,15.239,7.412,25.124
			s-2.059,14.415,3.294,18.534c5.353,4.119,9.059,13.18,7.412,1.648c-1.647-11.532-3.706-23.888-5.765-36.244
			s-4.941-25.124-4.118-32.949s4.529-7.414-3.294-14.003C210.921,600.261,208.45,610.146,210.097,616.324z" style="opacity: 1;"></path>
		<path class="st4" d="M253.332,619.618c-7.823,9.473-15.647,14.827-11.529,23.888c4.118,9.061,9.882,10.709,8.235,21.005
			s-7.412,26.36-4.118,29.243c3.294,2.883,2.471,3.295,9.471-9.473c7-12.768,11.118-16.887,5.765-23.065
			c-5.353-6.178-14-16.475-7.412-24.712c6.588-8.237,10.706-16.063,10.706-20.182c0-4.119-9.059,2.883-9.059,2.883L253.332,619.618z
			" style="opacity: 1;"></path>
		<path class="st4" d="M355.024,448.033c-8.965,22.826-4.075,26.902,4.89,55.435c8.965,28.533,12.225,30.163,4.075,48.098
			c-8.15,17.935-21.19,22.826-27.71,40.761c-6.52,17.935-2.445,52.174,0,41.576c2.445-10.598-3.26-34.239,13.04-48.098
			c16.3-13.859,27.71-39.13,27.71-39.13l-3.26-45.652c0,0-8.965-42.391-2.445-55.435c6.52-13.043,9.78-1.63,0-13.859
			c-9.78-12.228-18.745-4.891-19.56-16.304C350.949,404.011,355.024,448.033,355.024,448.033z" style="opacity: 1;"></path>
		<path class="st4" d="M323.239,584.174c-10.595,19.565-8.965,35.054-4.89,49.728c4.075,14.674,1.63,24.456,1.63,24.456
			s-45.64,46.467-32.6,29.348s18.745-26.902,14.67-49.728c-4.075-22.826-13.04-15.489-4.89-30.163
			c8.15-14.674,26.895-37.5,34.23-43.206C338.724,558.902,323.239,584.174,323.239,584.174z" style="opacity: 1;"></path>
	</g>
	<g>
		<path class="st5" d="M59.781,162.938c0,0,22.084,13.198,23.354,13.198s2.963,3.811,23.284,13.974
			c20.321,10.163,52.919,14.821,56.305,15.668c3.387,0.847,9.737,2.541,19.051,10.163c9.314,7.622,4.657,18.209,7.62,22.867
			c2.963,4.658,6.581,5.782,6.581,5.782l6.966,14.121l-20.744,11.01c0,0-13.547-32.183-27.941-43.616s-68.582-28.795-81.706-34.724
			S52.23,179.1,38.683,166.397s-30.481-42.769-27.094-60.554s13.547-25.407,13.547-25.407s-2.963,13.127-1.27,21.173
			s-3.81,29.642,9.737,45.733S59.781,162.938,59.781,162.938z" style="opacity: 1;"></path>
		<path class="st5" d="M424.219,162.938c0,0-22.084,13.198-23.354,13.198c-1.27,0-2.963,3.811-23.284,13.974
			c-20.321,10.163-52.919,14.821-56.305,15.668c-3.387,0.847-9.737,2.541-19.051,10.163c-9.314,7.622-4.657,18.209-7.62,22.867
			s-6.581,5.782-6.581,5.782l-6.966,14.121l20.744,11.01c0,0,13.547-32.183,27.941-43.616
			c14.394-11.433,68.582-28.795,81.706-34.724c13.124-5.928,20.321-12.28,33.868-24.984s30.481-42.769,27.094-60.554
			c-3.387-17.785-13.547-25.407-13.547-25.407s2.963,13.127,1.27,21.173c-1.693,8.046,3.81,29.642-9.737,45.733
			S424.219,162.938,424.219,162.938z" style="opacity: 1;"></path>
		<g>
			<g>
				<path class="st6" d="M65.317,17.065c-13.127,11.73-26.551,18.434-48.466,49.113C-4.475,98.637-2.665,119.811,6.44,140.563
					c17.72,40.386,74.607,61.896,111.551,73.808c52.69,16.989,57.437,55.417,57.437,55.417l8.72-3.877
					c0,0-4.644-12.599,11.828-21.322c-4.845-7.753-4.937-34.223-2.28-50.939c2.004-12.607-3.198-37.579-19.548-55.414
					c-2.33-2.542-6.416,0.286-4.849,3.358c13.06,25.596,5.298,74.055-17.676,79.105c0,0,10.234-7.338,10.503-13.482
					c0.269-6.144-47.097-11.836-74.074-29.64s14.176-59.975,18.422-62.736c4.246-2.761-22.505,2.551-32.45,18.384
					s-10.389,30.019-8.371,37.771c1.458,5.599,0.791,6.968-1.784,2.424c-0.99-1.746-2.809-9.227-4.087-10.483
					c-8.001-2.564-18.037-13.854-18.037-13.854s-13.885-12.158-13.809-28.671c0.099-21.46,27.164-44.251,45.35-49.644
					c2.36-0.7,1.941-4.155-0.517-4.294c-11.698-0.661-37.904,6.64-50.558,35.307c-5.798,13.136-3.139-8.961,2.91-17.381
					c2.815-3.918,9.228-11.318,10.999-14.138C46.064,54.43,70.12,25.437,92.633,7.763C107.499-3.909,94.472-3.652,65.317,17.065z" style="opacity: 1;"></path>
				<path class="st6" d="M418.683,17.065c13.127,11.73,26.551,18.434,48.466,49.113c21.326,32.459,19.516,53.633,10.411,74.385
					c-17.72,40.386-74.607,61.896-111.551,73.808c-52.69,16.989-57.437,55.417-57.437,55.417l-8.72-3.877
					c0,0,4.644-12.599-11.828-21.322c4.845-7.753,4.937-34.223,2.28-50.939c-2.004-12.607,3.198-37.579,19.548-55.414
					c2.33-2.542,6.416,0.286,4.849,3.358c-13.06,25.596-5.298,74.055,17.676,79.105c0,0-10.234-7.338-10.503-13.482
					c-0.269-6.144,47.097-11.836,74.074-29.64c26.977-17.804-14.176-59.975-18.422-62.736c-4.246-2.761,22.505,2.551,32.45,18.384
					s10.389,30.019,8.371,37.771c-1.458,5.599-0.791,6.968,1.784,2.424c0.99-1.746,2.809-9.227,4.087-10.483
					c8.001-2.564,18.037-13.854,18.037-13.854s13.885-12.158,13.809-28.671c-0.099-21.46-27.164-44.251-45.35-49.644
					c-2.36-0.7-1.941-4.155,0.517-4.294c11.698-0.661,37.904,6.64,50.558,35.307c5.798,13.136,3.139-8.961-2.91-17.381
					c-2.815-3.918-9.228-11.318-10.999-14.138c-9.945-15.833-34.001-44.826-56.514-62.501
					C376.501-3.909,389.528-3.652,418.683,17.065z" style="opacity: 1;"></path>
			</g>
			<g>
				<path class="st7" d="M330.033,481.113c-2.59-24.878-17.039-89.202-13.469-113.334l-74.077-42.017l-74.077,42.017
					c3.57,24.132-10.878,88.456-13.468,113.334c-2.59,24.878,6.734,41.464,12.432,45.887c0-8.846,4.662-16.586,4.662-16.586
					s-2.59,18.244,11.396,33.171c1.036-0.553,2.59-12.163,2.59-12.163s7.77,20.456,20.203,28.195
					c-1.036-2.764-1.554-13.821-1.554-13.821s3.626,18.797,22.275,27.642c-1.554-6.081-1.554-12.716-1.554-12.716
					s0.518,9.398,17.095,16.033c16.577-6.634,17.095-16.033,17.095-16.033s0,6.634-1.554,12.716
					c18.649-8.846,22.275-27.642,22.275-27.642s-0.518,11.057-1.554,13.821c12.432-7.74,20.203-28.195,20.203-28.195
					s1.554,11.61,2.59,12.163c13.987-14.927,11.396-33.171,11.396-33.171s4.662,7.74,4.662,16.586
					C323.298,522.577,332.623,505.991,330.033,481.113z" style="opacity: 1;"></path>
				<path class="st8" d="M175.309,395.714c1.746,10.482-5.215,45.346,3.08,58.011c0.437-3.931,3.056-8.298,3.056-8.298
					s-0.873,31.008,12.662,45.857c0.873-7.861-2.183-17.469,1.31-14.849c3.493,2.62,7.859,31.008,3.056,39.306
					c6.986-1.747,10.915-20.09,10.915-20.09l-0.437-12.665c0,0,6.113,24.02,12.225,29.261c-0.873-10.918,3.056-14.412,3.056-14.412
					s1.746,21.4,12.225,31.445c1.746-4.367,5.676-22.273,5.676-22.273s6.549,19.653,1.746,34.939
					c10.915,3.494,23.577-29.261,21.831-33.192c1.746,0.437,3.93,17.033-1.31,27.951c14.408-8.735,19.211-31.445,19.211-31.445
					l-0.873,23.584c10.479-11.355,16.592-39.743,16.592-49.351c2.183,5.678,3.493,23.147,3.056,32.755
					c7.423-11.792,5.676-36.685,5.676-36.685l5.239,18.343c0,0,2.62-19.653,0.873-32.755c-0.873-12.665-3.493-19.216-3.493-19.216
					s7.423,15.722,8.296,17.033c0.873-0.873-6.135-47.582-6.113-51.971c0.437-86.036-45.845-46.73-72.479-51.098
					C213.756,351.529,177.492,378.681,175.309,395.714z" style="opacity: 1;"></path>
				<path class="st9" d="M177.19,410.764c1.881,10.912,1.881,21.447,3.385,25.586c1.129-3.386,0.752-7.902,0.752-7.902
					s6.395,21.071,6.395,30.101c0,9.03,0,9.03,0,9.03s5.266-11.288,4.89-16.556c0,8.278,6.771,19.19,6.771,19.19l1.128-6.773
					c0,0,4.138,9.03,4.138,13.546c1.881-1.881,3.009-9.03,3.009-9.03l5.643,16.179c0,0,4.138-4.139,4.138-10.912
					c0-1.129,1.881,10.159,7.147,15.803c0.752-6.397,4.89-13.922,4.89-13.922s3.762,16.556,0.376,23.705
					c9.028-2.258,15.799-22.576,15.799-22.576s1.881,10.159,0.752,13.546c3.762-4.139,7.523-10.159,7.523-10.159
					s-1.128,21.823,0.752,29.349c2.257-4.139,8.276-32.359,10.157-32.735c3.009,7.525,0.752,18.813,0.752,18.813
					s12.414-18.813,11.661-26.715c2.257,8.654,3.762,13.546,3.762,13.546s6.395-16.179,6.019-23.705
					c1.881,13.169,1.129,25.962,1.129,25.962s7.523-23.705,6.019-34.24c1.505,7.902,6.395,21.071,6.395,21.071
					c0-7.902,0-30.477,0-30.477s4.138,12.417,4.138,21.823c1.129,4.891,2.257-27.467,0-36.874c3.762,13.546,3.009,19.19,3.009,19.19
					s3.762-38.755-1.129-53.43c-4.89-14.674-24.827-24.457-30.093-26.715c-5.266-2.258-33.479-4.515-33.479-4.515
					S179.447,373.514,177.19,410.764z" style="opacity: 1;"></path>
				<path class="st9" d="M170.028,465.792c-3.384,12-0.279,36.028,0.279,39.1c-6.701-5.865-8.656-22.902-6.422-32.956
					c2.234-10.054,3.071-22.064,3.63-26.812C168.073,440.377,173.099,454.9,170.028,465.792z" style="opacity: 1;"></path>
				<path class="st9" d="M182.034,496.234c-0.718,10.41,5.026,24.577,11.169,32.956c-3.351-5.027-7.818-29.884-7.818-37.704
					s-6.143-18.992-6.143-18.992S182.592,488.135,182.034,496.234z" style="opacity: 1;"></path>
				<path class="st9" d="M211.351,514.388c-1.954,12.568,3.63,31.839,9.493,39.1c-3.071-8.379-8.376-41.334-8.376-45.803
					S211.351,514.388,211.351,514.388z" style="opacity: 1;"></path>
				<path class="st9" d="M228.663,534.776c5.473,10.949,5.584,24.857,5.584,24.857s4.467-9.496,0.838-18.992
					c-3.63-9.496-6.422-11.451-8.376-16.199C224.754,519.694,225.871,529.19,228.663,534.776z" style="opacity: 1;"></path>
				<path class="st9" d="M255.747,542.875c-1.937,11.623-10.889,19.829-10.889,19.829s8.656-18.992,6.701-30.442
					C249.604,520.811,257.701,531.145,255.747,542.875z" style="opacity: 1;"></path>
				<path class="st9" d="M269.428,549.299c-2.234-10.054,3.909-34.352,3.909-34.352
					C274.733,527.794,274.175,544.551,269.428,549.299z" style="opacity: 1;"></path>
				<path class="st9" d="M238.156,527.514c-5.305-12.009-0.838-28.767-0.838-28.767c1.405,5.623,2.287,11.77,2.351,17.318
					C239.72,520.437,239.264,524.437,238.156,527.514z" style="opacity: 1;"></path>
				<path class="st9" d="M203.254,506.568c-5.026-6.424-4.467-28.208-4.467-28.208s1.798,4.087,3.183,10.093
					C203.145,493.55,204.023,500.029,203.254,506.568z" style="opacity: 1;"></path>
				<path class="st9" d="M281.155,518.856c-1.625-13.819,3.909-31.001,4.467-32.677c-0.558,13.406,0.558,21.226-0.279,31.001
					c-0.838,9.775-4.188,15.361-4.188,15.361S281.714,523.604,281.155,518.856z" style="opacity: 1;"></path>
				<path class="st9" d="M293.441,525.839c-0.558-6.424,5.863-32.397,2.792-41.055c-3.071-8.658,5.026,6.982,3.351,19.829
					c-1.675,12.847-3.909,22.064-3.909,25.136C295.674,532.821,293.441,525.839,293.441,525.839z" style="opacity: 1;"></path>
			</g>
			<path class="st10" d="M111.811,302.618c19.992,19.228,39.623,14.796,47.019,15.853c7.396,1.057,10.566,8.984,10.566,8.984
				s3.698-25.365-1.585-38.576c-5.283-13.211-29.057-25.894-48.076-30.65C100.716,253.473,98.075,289.407,111.811,302.618z" style="opacity: 1;"></path>
			<path class="st10" d="M371.752,302.618c-19.992,19.228-39.623,14.796-47.019,15.853c-7.396,1.057-10.566,8.984-10.566,8.984
				s-3.698-25.365,1.585-38.576s29.057-25.894,48.076-30.65C382.846,253.473,385.488,289.407,371.752,302.618z" style="opacity: 1;"></path>
			<path class="st11" d="M400.644,244.364c-6.212-2.519-19.282-1.894-46.734,10.887c-32.608,15.182-35.85,27.137-44.57,25.198
				c-8.72-1.938,3.876-5.815,3.876-10.661s-22.285-17.445-30.036-17.445c-7.751,0-17.925,25.198-41.179,25.198
				s-33.428-25.198-41.179-25.198c-7.751,0-30.036,12.599-30.036,17.445s12.596,8.723,3.876,10.661
				c-8.72,1.938-11.962-10.017-44.57-25.198c-27.452-12.781-40.522-13.406-46.734-10.887c-4.233,1.716-6.215,6.592-4.456,10.809
				c4.583,10.981,22.876,50.459,51.19,56.29c32.943,6.784,29.068-8.723,22.285-19.383c-6.782-10.661-28.099-21.322-35.85-24.229
				c-7.751-2.908,10.658-3.877,25.192,5.815c14.534,9.692,22.115,20.144,25.022,29.836s1.872,20.287-2.003,28.04
				c-6.538,13.08-1.815,29.255,4.755,47.562c8.321,23.187,6.424,27.625,19.02,57.669c12.596,30.044,33.142,33.294,53.49,33.294
				c20.347,0,40.894-3.249,53.49-33.294c12.596-30.044,10.699-34.483,19.02-57.669c6.57-18.308,11.293-34.483,4.755-47.562
				c-3.876-7.753-4.91-18.348-2.003-28.04c2.907-9.692,10.488-20.144,25.022-29.836c14.534-9.692,32.943-8.723,25.192-5.815
				c-7.751,2.908-29.068,13.568-35.85,24.229c-6.782,10.661-10.658,26.168,22.285,19.383c28.314-5.831,46.607-45.309,51.19-56.29
				C406.859,250.956,404.877,246.08,400.644,244.364z" style="opacity: 1;"></path>
			<path class="st12" d="M119.908,303.175c-6.723-5.611-15.752-19.899-17.386-29.487c-1.635-9.589,11.723-6.838,28.187,0.41
				s30.228,21.765,30.533,30.591c0.305,8.825-8.88,10.336-15.135,10.137C139.853,314.626,125.118,307.523,119.908,303.175z" style="opacity: 1;"></path>
			<path class="st12" d="M367.183,303.175c6.723-5.611,15.752-19.899,17.386-29.487c1.635-9.589-11.723-6.838-28.187,0.41
				s-30.228,21.765-30.533,30.591c-0.305,8.825,8.88,10.336,15.135,10.137C347.239,314.626,361.973,307.523,367.183,303.175z" style="opacity: 1;"></path>
			<path class="st13" d="M208.645,422.138c-0.301,4.22-1.507,12.81,1.959,18.085c3.465,5.275,19.135,10.097,32.996,10.549
				c13.861,0.452,29.832-9.193,31.038-12.358s1.507-15.221,0.452-17.482C274.035,418.671,208.645,422.138,208.645,422.138z" style="opacity: 1;"></path>
			<g>
				<g>
					<path class="st10" d="M124.842,293.752c0.243,0.202,0.422,0.357,0.582,0.494c0.238,0.204,0.448,0.384,0.721,0.588
						c0.272,0.204,0.586,0.42,1.06,0.73c0.709,0.464,1.659,0.265,2.123-0.444c0.463-0.709,0.264-1.66-0.444-2.123
						c-0.299-0.195-0.515-0.341-0.68-0.458c-0.249-0.176-0.381-0.282-0.572-0.442c-0.19-0.159-0.436-0.376-0.825-0.701
						c-0.651-0.542-1.618-0.454-2.16,0.196C124.104,292.242,124.191,293.209,124.842,293.752L124.842,293.752z" style="opacity: 1;"></path>
					<path class="st10" d="M132.256,298.673c5.528,3.104,10.998,5.361,11.03,5.375c0.783,0.323,1.679-0.049,2.003-0.832
						c0.323-0.783-0.049-1.68-0.832-2.003l-0.056-0.024c-0.585-0.244-5.643-2.382-10.642-5.191
						c-0.738-0.415-1.673-0.152-2.088,0.587C131.255,297.323,131.517,298.258,132.256,298.673z" style="opacity: 1;"></path>
					<path class="st10" d="M351.166,299.619c-5.528,3.104-10.998,5.361-11.029,5.375c-0.783,0.324-1.679-0.049-2.003-0.832
						c-0.323-0.783,0.049-1.68,0.832-2.003l0.057-0.024c0.585-0.244,5.643-2.382,10.642-5.191c0.738-0.415,1.673-0.152,2.088,0.587
						C352.167,298.269,351.905,299.204,351.166,299.619z" style="opacity: 1;"></path>
					<path class="st10" d="M358.58,294.697c-0.243,0.203-0.422,0.356-0.582,0.494c-0.238,0.204-0.448,0.383-0.72,0.588
						c-0.272,0.204-0.586,0.42-1.06,0.73c-0.709,0.463-1.659,0.265-2.123-0.444c-0.464-0.709-0.265-1.66,0.444-2.123
						c0.299-0.196,0.515-0.341,0.68-0.458c0.249-0.176,0.381-0.282,0.572-0.442c0.19-0.16,0.436-0.376,0.826-0.701
						c0.651-0.542,1.617-0.454,2.16,0.196C359.319,293.188,359.231,294.155,358.58,294.697L358.58,294.697z" style="opacity: 1;"></path>
				</g>
			</g>
			<g>
				<path class="st14" d="M177.316,344.294c-2.465-3.944,0-11.833,8.38-10.354s11.337,14.299,9.859,15.778
					c-1.479,1.479-7.887,2.958-12.816,0.986C177.809,348.732,177.316,344.294,177.316,344.294z" style="opacity: 1;"></path>
				<path class="st14" d="M306.684,344.783c2.465-3.944,0-11.833-8.38-10.354c-8.38,1.479-11.337,14.299-9.859,15.778
					c1.479,1.479,7.887,2.958,12.816,0.986C306.191,349.22,306.684,344.783,306.684,344.783z" style="opacity: 1;"></path>
			</g>
			<path class="st15" d="M257.239,387.331c-7.084-11.486-3.071-37.617,4.182-53.578c1.884-4.145-6.911,0.441-10.756,2.818
				c-5.736,3.545-6.379,4.22-8.664,7.611c-2.285-3.391-2.928-4.066-8.664-7.611c-3.846-2.377-12.64-6.962-10.756-2.818
				c7.253,15.961,11.266,42.093,4.182,53.578c-5.126,8.31-16.912,21.847-17.88,34.326c-0.071,0.91-0.084,1.814-0.032,2.709
				c0.753,13.188,19.489,15.072,26.27,16.203c5.764,0.961,2.7-3.578,5.052-5.609c1.013-0.875,2.533-0.86,3.623-0.082
				c2.784,1.988,0.452,6.664,6.294,5.69c6.781-1.13,24.31-3.014,25.064-16.203C275.904,411.178,262.738,396.247,257.239,387.331z" style="opacity: 1;"></path>
			<path class="st15" d="M274.211,435.684c-1.006-0.705-2.849,3.523-7.542,5.46c-13.407,5.989-24.636,5.108-24.636,5.108
				s-11.229,0.881-24.636-5.108c-4.693-1.938-6.536-6.165-7.542-5.46c-1.937,1.357,3.017,14.121,10.558,18.172
				c7.542,4.051,17.932,1.585,21.619,1.585c3.687,0,14.078,2.466,21.619-1.585C271.194,449.805,276.148,437.042,274.211,435.684z" style="opacity: 1;"></path>
			<path class="st14" d="M242.063,399.85c-13.784,0-23.359,15.1-21.769,20.403c1.59,5.303,5.823,0.642,10.064,2.763
				c4.241,2.121,1.121,4.982-4.607,2.74c-2.843-1.113-5.23,2.242-2.864,4.11c2.366,1.868,12.95,1.993,19.176,1.993
				c6.226,0,16.81-0.125,19.176-1.993c2.366-1.868-0.021-5.223-2.864-4.11c-5.728,2.242-8.848-0.619-4.607-2.74
				s8.474,2.539,10.064-2.763C265.422,414.95,255.847,399.85,242.063,399.85z" style="opacity: 1;"></path>
			<path class="st16" d="M226.79,412.358c2.349-3.859,7.885-9.229,16.105-9.229s9.394,3.02,8.556,2.853
				c-0.839-0.168-4.865-2.014-10.233-0.839c-5.368,1.175-6.207,1.678-5.536,3.02c0.671,1.342,0,5.537-2.852,5.37
				c-2.852-0.168-2.349-1.846-4.194-0.168c-1.845,1.678-3.02,4.363-4.194,4.363S226.79,412.358,226.79,412.358z" style="opacity: 1;"></path>
			<path class="st15" d="M175.083,333.883c4.504-4.055,9.91-5.106,14.865-2.403c4.955,2.703,11.469,15.175,13.213,18.773
				c5.111,10.548,10.163,8.623,8.479,5.736s-4.089-17.565-6.736-25.506c-2.646-7.94-8.901-13.956-14.674-14.197
				c-5.773-0.241-11.547,2.647-9.622,3.85s3.608,1.684,0.722,2.887c-2.887,1.203-9.382,6.978-9.863,12.993
				S175.083,333.883,175.083,333.883z" style="opacity: 1;"></path>
			<path class="st15" d="M176.486,348.805c5.81,10.124,17.706,8.075,21.853,5.408c4.146-2.666,4.399,0.617,2.326,5.653
				c-2.073,5.036-5.584,13.306-17.43,10.048c-11.846-3.259-13.986-14.885-12.735-20.144
				C171.8,344.305,174.481,345.31,176.486,348.805z" style="opacity: 1;"></path>
			<path class="st15" d="M309.062,333.883c-4.504-4.055-9.91-5.106-14.865-2.403c-4.955,2.703-11.469,15.175-13.213,18.773
				c-5.111,10.548-10.163,8.623-8.479,5.736s4.089-17.565,6.736-25.506c2.646-7.94,8.901-13.956,14.674-14.197
				c5.773-0.241,11.547,2.647,9.622,3.85c-1.924,1.203-3.608,1.684-0.722,2.887c2.887,1.203,9.382,6.978,9.863,12.993
				S309.062,333.883,309.062,333.883z" style="opacity: 1;"></path>
			<path class="st15" d="M307.659,348.805c-5.81,10.124-17.706,8.075-21.853,5.408c-4.146-2.666-4.399,0.617-2.326,5.653
				c2.073,5.036,5.584,13.306,17.43,10.048c11.846-3.259,13.986-14.885,12.735-20.144
				C312.345,344.305,309.665,345.31,307.659,348.805z" style="opacity: 1;"></path>
			<path class="st17" d="M191.666,294.916c11.657,4.664,25.463,15.358,30.587,29.026c1.765,4.707-1.373,1.816-5.882-5.884
				c-4.458-7.612-15.034-14.119-23.529-17.259c-4.51-1.667-8.474-1.967-10.196-3.138
				C177.482,294.15,184.314,291.974,191.666,294.916z" style="opacity: 1;"></path>
			<path class="st17" d="M295.206,294.916c-11.657,4.664-25.463,15.358-30.587,29.026c-1.765,4.707,1.373,1.816,5.882-5.884
				c4.458-7.612,15.034-14.119,23.529-17.259c4.51-1.667,8.474-1.967,10.196-3.138C309.39,294.15,302.558,291.974,295.206,294.916z" style="opacity: 1;"></path>
		</g>
		<path class="st18" d="M202.846,257.297c7.187,5.806,19.073,19.354,27.089,22.396c8.016,3.041,19.349,2.488,27.365-1.106
			c8.016-3.594,20.455-18.525,23.219-19.907c2.764-1.382,9.675,0.553,6.91,1.382s-12.715,13.271-22.113,20.46
			c-9.398,7.189-21.008,8.571-26.812,8.018c-5.805-0.553-0.553,4.424,3.593,4.424s2.764,2.765-1.935,3.041s1.382,2.212,2.764,3.318
			c1.382,1.106-1.935,2.488-3.87,2.488s5.528,2.765,0.553,3.594c-4.976,0.829-7.187-2.765-6.358-3.318s-1.106-1.935-4.146-3.041
			s0-2.765,2.211-3.318s0.276-1.659-3.593-3.318c-3.87-1.659-1.659-4.424,1.106-4.7c2.764-0.276-19.349-17.972-25.43-22.672
			c-6.081-4.7-9.675-2.765-15.479-1.659c-5.805,1.106-0.829-3.041,4.423-5.53C197.595,255.362,202.846,257.297,202.846,257.297z" style="opacity: 1;"></path>
		<path class="st5" d="M26.651,76.531c0.815-4.484,4.075-14.47,4.279-12.432c0.204,2.038,0,4.688,0.611,3.669
			c0.611-1.019,6.52-13.248,6.52-10.598s1.426,1.223,1.426,1.223s25.877-30.775,32.397-36.074s6.928-4.891,3.668-1.834
			s-35.046,37.705-38.306,42.8s-9.373,14.47-10.799,16.101C25.021,81.015,26.651,76.531,26.651,76.531z" style="opacity: 1;"></path>
		<path class="st5" d="M79.651,16.422c-1.147,0.104-0.845-0.424-0.076-0.96c0.275-0.192,0.619-0.337,0.992-0.374
			c0.866-0.087,0.33,0.432-0.218,0.848C80.003,16.2,79.651,16.422,79.651,16.422z" style="opacity: 1;"></path>
		<path class="st5" d="M83.019,13.846c-1.147,0.104-0.845-0.424-0.076-0.96c0.275-0.192,0.619-0.337,0.992-0.374
			c0.866-0.087,0.33,0.432-0.218,0.848C83.371,13.624,83.019,13.846,83.019,13.846z" style="opacity: 1;"></path>
		<path class="st5" d="M186.531,165.588c3.25,3.612,4.624,7.136,4.228,7.401c-0.396,0.264-3.699-5.022-4.888-6.343
			C184.681,165.324,185.341,164.266,186.531,165.588z" style="opacity: 1;"></path>
		<path class="st5" d="M187.984,174.046c3.25,3.612,4.624,7.136,4.228,7.401c-0.396,0.264-3.699-5.022-4.888-6.343
			C186.134,173.781,186.795,172.724,187.984,174.046z" style="opacity: 1;"></path>
		<path class="st5" d="M187.588,184.354c3.25,3.612,4.624,7.136,4.228,7.401c-0.396,0.264-3.699-5.022-4.888-6.343
			C185.738,184.089,186.398,183.032,187.588,184.354z" style="opacity: 1;"></path>
		<path class="st5" d="M188.687,181.672c-0.551-0.552-0.924-1.563-0.426-1.35s1.101,1.315,1.03,1.599
			C189.22,182.205,188.9,181.885,188.687,181.672z" style="opacity: 1;"></path>
		<path class="st5" d="M190.747,183.2c1.474,1.475,2.451,4.477,1.883,4.122s-1.812-3.02-2.273-3.553S190.463,182.916,190.747,183.2z
			" style="opacity: 1;"></path>
		<path class="st5" d="M190.317,195.032c-1.373-1.922-3.04-4.022-2.452-4.022c0.588,0,2.746,2.256,3.236,3.924
			C191.592,196.601,190.807,195.719,190.317,195.032z" style="opacity: 1;"></path>
		<path class="st5" d="M187.571,195.13c1.079,0.981,3.825,5.297,3.53,6.18c-0.294,0.883-2.157-2.648-3.04-3.728
			C187.179,196.503,186.688,194.934,187.571,195.13z" style="opacity: 1;"></path>
		<path class="st5" d="M76.938,169.818c0.226,3.849,1.522,5.633,1.198,3.435c-0.358-2.428,0-5.482,0-6.371
			C78.135,165.992,76.79,167.299,76.938,169.818z" style="opacity: 1;"></path>
		<path class="st5" d="M79.791,175.357c-0.774-1.258-0.895-4.42-0.503-4.812c0.392-0.392,0.28,1.958,0.895,3.469
			c0.615,1.511,1.342,2.462,0.951,2.518S80.238,176.084,79.791,175.357z" style="opacity: 1;"></path>
		<path class="st5" d="M75.599,163.594c0-2.466,1.641-5.336,2.052-5.336s0.41,0.821-0.137,2.052
			c-0.547,1.231-1.368,3.968-1.368,5.199S75.599,165.783,75.599,163.594z" style="opacity: 1;"></path>
		<path class="st5" d="M9.346,125.055c4.7,16.119,21.258,37.875,44.508,50.832s14.615,11.628,8.968,8.97
			c-5.647-2.658-25.244-12.293-42.848-33.888s-14.615-37.211-13.95-41.53C6.688,105.12,7.021,117.081,9.346,125.055z" style="opacity: 1;"></path>
		<path class="st5" d="M159.373,231.722c5.905,2.215,7.636,4.02,5.828,3.819s-6.229-2.01-7.837-3.015
			C155.756,231.521,156.158,230.516,159.373,231.722z" style="opacity: 1;"></path>
		<path class="st5" d="M163.191,237.15c4.103,2.052,13.263,9.648,13.665,11.256c0.402,1.608-8.44-6.231-11.856-8.442
			C161.584,237.753,162.388,236.748,163.191,237.15z" style="opacity: 1;"></path>
		<path class="st5" d="M169.421,245.592c10.249,7.236,12.057,11.055,10.048,10.653c-2.01-0.402-8.842-7.236-10.65-9.045
			C167.01,245.391,168.687,245.073,169.421,245.592z" style="opacity: 1;"></path>
		<path class="st5" d="M173.44,253.833c3.215,2.412,5.828,4.422,5.426,5.226c-0.402,0.804-3.014,2.613-3.416,1.407
			S173.44,253.833,173.44,253.833z" style="opacity: 1;"></path>
		<path class="st19" d="M39.812,46.211c-0.278-3.898,5.289-12.807,5.01-10.58s1.113,2.227,2.505,0
			c1.392-2.227,8.35-10.858,8.072-8.353c-0.278,2.506,2.783-1.114,5.567-4.733s15.587-12.25,18.928-13.086s-1.67,2.227-4.732,5.012
			S46.771,39.807,43.709,44.262S39.812,46.211,39.812,46.211z" style="opacity: 1;"></path>
		<path class="st19" d="M74.488,139.092c1.173-2.542,7.636-13.267,13.263-15.076c5.627-1.809-0.603,2.01-4.622,6.834
			s-6.431,9.246-7.636,11.457C74.287,144.519,72.077,144.318,74.488,139.092z" style="opacity: 1;"></path>
		<path class="st19" d="M294.131,193.212c-0.536-4.293-0.324-18.808,1.621-21.727s1.297,2.919,0.973,8.107
			c-0.324,5.189,0.973,14.917,0.973,18.16C297.697,200.995,294.779,198.4,294.131,193.212z" style="opacity: 1;"></path>
		<path class="st5" d="M305.313,251.169c2.462-8.62,13.234-25.244,15.081-25.244c1.847,0-1.847,5.849,3.078,4.002
			c4.924-1.847,14.465-11.083,20.621-14.469c6.156-3.386,63.402-28.015,69.25-28.938c5.848-0.924,2.06,3.874-1.894,4.862
			c-3.954,0.988-51.659,20.382-66.74,28.695c-15.081,8.312-23.699,16.624-28.315,24.321c-4.617,7.696-7.694,16.932-7.694,16.932
			L305.313,251.169z" style="opacity: 1;"></path>
		<path class="st17" d="M221.22,460.494c16.115,6.2,40.908,0.62,50.825-13.02c9.917-13.64,11.157-19.839,10.537-30.379
			c-0.62-10.54-8.677-22.939-3.099-21.699s20.454-8.68,26.652-19.839c6.198-11.16,12.208-18.178,8.893-9.089
			c-3.315,9.089-23.769,67.987-30.587,79.767c-6.818,11.78-17.975,15.499-25.413,17.359c-7.438,1.86-22.933,4.96-34.71,1.86
			C212.542,462.354,217.501,458.634,221.22,460.494z" style="opacity: 1;"></path>
	</g>
</g>
</svg>
